<?xml version="1.0" encoding="UTF-8" standalone="no"?>
<!DOCTYPE svg PUBLIC "-//W3C//DTD SVG 1.1//EN"
 "http://www.w3.org/Graphics/SVG/1.1/DTD/svg11.dtd">
<!-- Generated by graphviz version 9.0.0 (20230911.1827)
 -->
<!-- Pages: 1 -->
<svg width="1819pt" height="354pt"
 viewBox="0.00 0.00 1818.69 353.98" xmlns="http://www.w3.org/2000/svg" xmlns:xlink="http://www.w3.org/1999/xlink">
<g id="graph0" class="graph" transform="scale(1 1) rotate(0) translate(4 349.98)">
<polygon fill="white" stroke="none" points="-4,4 -4,-349.98 1814.69,-349.98 1814.69,4 -4,4"/>
<!-- A -->
<g id="node1" class="node">
<title>A</title>
<ellipse fill="lightblue" stroke="black" cx="775.11" cy="-327.98" rx="224.34" ry="18"/>
<text text-anchor="middle" x="775.11" y="-322.93" font-family="Times,serif" font-size="14.00">EEG Markers of Consciousness in Unresponsive Patients</text>
</g>
<!-- B -->
<g id="node2" class="node">
<title>B</title>
<ellipse fill="lightgrey" stroke="black" cx="775.11" cy="-255.98" rx="102.53" ry="18"/>
<text text-anchor="middle" x="775.11" y="-250.93" font-family="Times,serif" font-size="14.00">Candidate EEG Features</text>
</g>
<!-- A&#45;&gt;B -->
<g id="edge1" class="edge">
<title>A&#45;&gt;B</title>
<path fill="none" stroke="black" d="M775.11,-309.68C775.11,-302.39 775.11,-293.71 775.11,-285.52"/>
<polygon fill="black" stroke="black" points="778.61,-285.6 775.11,-275.6 771.61,-285.6 778.61,-285.6"/>
</g>
<!-- C -->
<g id="node3" class="node">
<title>C</title>
<ellipse fill="lightgrey" stroke="black" cx="264.11" cy="-183.98" rx="67.22" ry="18"/>
<text text-anchor="middle" x="264.11" y="-178.93" font-family="Times,serif" font-size="14.00">Spectral Power</text>
</g>
<!-- B&#45;&gt;C -->
<g id="edge2" class="edge">
<title>B&#45;&gt;C</title>
<path fill="none" stroke="black" d="M696.1,-244.16C597.04,-230.59 428.74,-207.54 334.1,-194.57"/>
<polygon fill="black" stroke="black" points="334.82,-191.14 324.44,-193.25 333.87,-198.07 334.82,-191.14"/>
</g>
<!-- D -->
<g id="node4" class="node">
<title>D</title>
<ellipse fill="lightgrey" stroke="black" cx="607.11" cy="-183.98" rx="123.52" ry="18"/>
<text text-anchor="middle" x="607.11" y="-178.93" font-family="Times,serif" font-size="14.00">Spectral and Spatial Gradients</text>
</g>
<!-- B&#45;&gt;D -->
<g id="edge3" class="edge">
<title>B&#45;&gt;D</title>
<path fill="none" stroke="black" d="M736.57,-238.92C713,-229.1 682.61,-216.44 657.19,-205.85"/>
<polygon fill="black" stroke="black" points="658.61,-202.65 648.03,-202.04 655.92,-209.11 658.61,-202.65"/>
</g>
<!-- E -->
<g id="node5" class="node">
<title>E</title>
<ellipse fill="lightgrey" stroke="black" cx="887.11" cy="-183.98" rx="81.04" ry="18"/>
<text text-anchor="middle" x="887.11" y="-178.93" font-family="Times,serif" font-size="14.00">Signal Complexity</text>
</g>
<!-- B&#45;&gt;E -->
<g id="edge4" class="edge">
<title>B&#45;&gt;E</title>
<path fill="none" stroke="black" d="M801.93,-238.22C816.73,-228.97 835.28,-217.37 851.3,-207.36"/>
<polygon fill="black" stroke="black" points="852.98,-210.44 859.6,-202.17 849.27,-204.51 852.98,-210.44"/>
</g>
<!-- J -->
<g id="node10" class="node">
<title>J</title>
<ellipse fill="lightgreen" stroke="black" cx="1260.11" cy="-183.98" rx="109.7" ry="18"/>
<text text-anchor="middle" x="1260.11" y="-178.93" font-family="Times,serif" font-size="14.00">Etiology&#45;Specific Markers</text>
</g>
<!-- B&#45;&gt;J -->
<g id="edge9" class="edge">
<title>B&#45;&gt;J</title>
<path fill="none" stroke="black" d="M852.49,-243.81C938.5,-231.4 1077.27,-211.37 1168.6,-198.19"/>
<polygon fill="black" stroke="black" points="1168.87,-201.69 1178.27,-196.79 1167.87,-194.76 1168.87,-201.69"/>
</g>
<!-- F -->
<g id="node6" class="node">
<title>F</title>
<ellipse fill="lightyellow" stroke="black" cx="130.11" cy="-100.99" rx="130.11" ry="28.99"/>
<text text-anchor="middle" x="130.11" y="-104.19" font-family="Times,serif" font-size="14.00">Alpha Power</text>
<text text-anchor="middle" x="130.11" y="-87.69" font-family="Times,serif" font-size="14.00">(Absolute, Relative, Flattened)</text>
</g>
<!-- C&#45;&gt;F -->
<g id="edge5" class="edge">
<title>C&#45;&gt;F</title>
<path fill="none" stroke="black" d="M237.63,-166.98C222.31,-157.72 202.46,-145.72 183.99,-134.56"/>
<polygon fill="black" stroke="black" points="185.86,-131.6 175.5,-129.42 182.24,-137.59 185.86,-131.6"/>
</g>
<!-- G -->
<g id="node7" class="node">
<title>G</title>
<ellipse fill="lightyellow" stroke="black" cx="357.11" cy="-100.99" rx="78.99" ry="18"/>
<text text-anchor="middle" x="357.11" y="-95.94" font-family="Times,serif" font-size="14.00">Spectral Exponent</text>
</g>
<!-- D&#45;&gt;G -->
<g id="edge6" class="edge">
<title>D&#45;&gt;G</title>
<path fill="none" stroke="black" d="M558.01,-167.08C515.93,-153.45 455.38,-133.83 411.77,-119.7"/>
<polygon fill="black" stroke="black" points="413.1,-116.45 402.51,-116.7 410.94,-123.11 413.1,-116.45"/>
</g>
<!-- H -->
<g id="node8" class="node">
<title>H</title>
<ellipse fill="lightyellow" stroke="black" cx="607.11" cy="-100.99" rx="152.69" ry="18"/>
<text text-anchor="middle" x="607.11" y="-95.94" font-family="Times,serif" font-size="14.00">Alpha Posterior&#45;Anterior Ratio (PAR)</text>
</g>
<!-- D&#45;&gt;H -->
<g id="edge7" class="edge">
<title>D&#45;&gt;H</title>
<path fill="none" stroke="black" d="M607.11,-165.81C607.11,-155.67 607.11,-142.59 607.11,-130.91"/>
<polygon fill="black" stroke="black" points="610.61,-130.94 607.11,-120.94 603.61,-130.94 610.61,-130.94"/>
</g>
<!-- I -->
<g id="node9" class="node">
<title>I</title>
<ellipse fill="lightyellow" stroke="black" cx="944.11" cy="-100.99" rx="166.7" ry="28.99"/>
<text text-anchor="middle" x="944.11" y="-104.19" font-family="Times,serif" font-size="14.00">Lempel&#45;Ziv Complexity</text>
<text text-anchor="middle" x="944.11" y="-87.69" font-family="Times,serif" font-size="14.00">(Shuffle&#45;normalized, Phase&#45;normalized)</text>
</g>
<!-- E&#45;&gt;I -->
<g id="edge8" class="edge">
<title>E&#45;&gt;I</title>
<path fill="none" stroke="black" d="M899.2,-165.81C904.69,-158.01 911.41,-148.45 917.96,-139.14"/>
<polygon fill="black" stroke="black" points="920.65,-141.41 923.54,-131.22 914.92,-137.38 920.65,-141.41"/>
</g>
<!-- K -->
<g id="node11" class="node">
<title>K</title>
<ellipse fill="lightgreen" stroke="black" cx="1260.11" cy="-100.99" rx="131.71" ry="18"/>
<text text-anchor="middle" x="1260.11" y="-95.94" font-family="Times,serif" font-size="14.00">Diagnostic and Prognostic Value</text>
</g>
<!-- J&#45;&gt;K -->
<g id="edge10" class="edge">
<title>J&#45;&gt;K</title>
<path fill="none" stroke="black" d="M1260.11,-165.81C1260.11,-155.67 1260.11,-142.59 1260.11,-130.91"/>
<polygon fill="black" stroke="black" points="1263.61,-130.94 1260.11,-120.94 1256.61,-130.94 1263.61,-130.94"/>
</g>
<!-- L -->
<g id="node12" class="node">
<title>L</title>
<ellipse fill="lightgreen" stroke="black" cx="1541.11" cy="-100.99" rx="131.19" ry="18"/>
<text text-anchor="middle" x="1541.11" y="-95.94" font-family="Times,serif" font-size="14.00">Etiology&#45;Dependent Differences</text>
</g>
<!-- J&#45;&gt;L -->
<g id="edge11" class="edge">
<title>J&#45;&gt;L</title>
<path fill="none" stroke="black" d="M1312.63,-167.84C1358.71,-154.56 1425.91,-135.19 1475.51,-120.9"/>
<polygon fill="black" stroke="black" points="1476.35,-124.3 1484.99,-118.17 1474.41,-117.57 1476.35,-124.3"/>
</g>
<!-- M -->
<g id="node13" class="node">
<title>M</title>
<ellipse fill="lightgreen" stroke="black" cx="874.11" cy="-18" rx="175.21" ry="18"/>
<text text-anchor="middle" x="874.11" y="-12.95" font-family="Times,serif" font-size="14.00">Alpha Power Importance in Anoxic Patients</text>
</g>
<!-- K&#45;&gt;M -->
<g id="edge12" class="edge">
<title>K&#45;&gt;M</title>
<path fill="none" stroke="black" d="M1190.21,-85.32C1125.45,-71.74 1028.97,-51.49 959.64,-36.95"/>
<polygon fill="black" stroke="black" points="960.74,-33.6 950.24,-34.97 959.31,-40.45 960.74,-33.6"/>
</g>
<!-- N -->
<g id="node14" class="node">
<title>N</title>
<ellipse fill="lightgreen" stroke="black" cx="1260.11" cy="-18" rx="193.12" ry="18"/>
<text text-anchor="middle" x="1260.11" y="-12.95" font-family="Times,serif" font-size="14.00">Spectral Exponent Value for Non&#45;anoxic Patients</text>
</g>
<!-- K&#45;&gt;N -->
<g id="edge13" class="edge">
<title>K&#45;&gt;N</title>
<path fill="none" stroke="black" d="M1260.11,-82.82C1260.11,-72.68 1260.11,-59.6 1260.11,-47.91"/>
<polygon fill="black" stroke="black" points="1263.61,-47.94 1260.11,-37.94 1256.61,-47.94 1263.61,-47.94"/>
</g>
<!-- O -->
<g id="node15" class="node">
<title>O</title>
<ellipse fill="lightgreen" stroke="black" cx="1641.11" cy="-18" rx="169.58" ry="18"/>
<text text-anchor="middle" x="1641.11" y="-12.95" font-family="Times,serif" font-size="14.00">Lack of Generalization to Other Etiologies</text>
</g>
<!-- K&#45;&gt;O -->
<g id="edge14" class="edge">
<title>K&#45;&gt;O</title>
<path fill="none" stroke="black" d="M1329.1,-85.32C1392.89,-71.77 1487.86,-51.58 1556.26,-37.04"/>
<polygon fill="black" stroke="black" points="1556.89,-40.48 1565.94,-34.98 1555.44,-33.63 1556.89,-40.48"/>
</g>
</g>
</svg>
